<svg xmlns="http://www.w3.org/2000/svg" viewBox="0 0 496 512">
  <path fill="#1DB954" d="M248 8C111.1 8 0 119.1 0 256s111.1 248 248 248 248-111.1 248-248S384.9 8 248 8zm114.9 365.7c-4.7 7.8-14.8 10.3-22.6 5.6-62-37.9-140.1-46.5-232.1-25.5-8.9 2-17.7-3.6-19.7-12.5s3.6-17.7 12.5-19.7c100.6-23.1 187.7-13.2 257.1 29.2 7.8 4.8 10.3 14.8 5.6 22.6zm32.3-71.8c-5.9 9.6-18.4 12.6-28 6.7-71-43.7-179.2-56.4-263.4-30.8-10.8 3.2-22.2-2.9-25.4-13.7s2.9-22.2 13.7-25.4c96.2-29.2 215.9-14.9 298.5 35.3 9.6 5.9 12.6 18.4 6.7 28zm2.8-74.9c-85.1-50.5-225.4-55.1-306.6-30.4-13.1 4-26.9-3.4-30.9-16.5-4-13.1 3.4-26.9 16.5-30.9 93.3-28.3 248.7-22.8 346.9 35.5 11.8 7 15.7 22.2 8.7 34-7 11.8-22.2 15.7-34 8.7z"></path>
</svg>
